<?xml version="1.0" encoding="UTF-8"?> <svg xmlns="http://www.w3.org/2000/svg" id="Layer_1" data-name="Layer 1" viewBox="0 0 466.7 227.18"> <defs> <style>.cls-1{fill:#0075c9;}.cls-2,.cls-3{fill:#fff;}.cls-3{fill-rule:evenodd;}.cls-4{fill:#ffd200;}</style> </defs> <title>RideLogo_2018_VA-NewSW-R2</title> <rect id="_Path_" data-name="&lt;Path&gt;" class="cls-1" width="466.7" height="227.18"></rect> <rect class="cls-2" x="3.85" y="163.3" width="458.97" height="31.78"></rect> <polygon class="cls-2" points="272.11 209.07 269.46 202.71 269.44 202.65 268.77 202.65 266.11 209.07 263.79 202.81 261.89 202.81 265.67 212.7 266.33 212.7 269.11 206.1 271.88 212.7 272.53 212.7 276.31 202.81 274.42 202.81 272.11 209.07 272.11 209.07"></polygon> <polygon class="cls-2" points="284.11 206.6 279.52 206.6 279.52 202.81 277.79 202.81 277.79 212.54 279.52 212.54 279.52 208.18 284.11 208.18 284.11 212.54 285.84 212.54 285.84 202.81 284.11 202.81 284.11 206.6 284.11 206.6"></polygon> <polygon class="cls-2" points="289.79 208.15 293.35 208.15 293.35 206.62 289.79 206.62 289.79 204.38 294.52 204.38 294.52 202.81 288.05 202.81 288.05 212.54 294.69 212.54 294.69 210.96 289.79 210.96 289.79 208.15 289.79 208.15"></polygon> <path class="cls-2" d="M316.33,223.35h-2.9l1.46-3.57,1.44,3.57Zm-1.77-6.79-4.29,9.89h1.85l.68-1.59H317l.69,1.59h1.86l-4.29-9.89Z" transform="translate(-14.9 -13.91)"></path> <polygon class="cls-2" points="303.75 204.38 306.95 204.38 306.95 212.54 308.69 212.54 308.69 204.38 311.91 204.38 311.91 202.81 303.75 202.81 303.75 204.38 303.75 204.38"></polygon> <path class="cls-2" d="M332,225a3.43,3.43,0,1,1,3.32-3.44A3.27,3.27,0,0,1,332,225Zm0-8.45a5,5,0,1,0,5.11,5,5,5,0,0,0-5.11-5Z" transform="translate(-14.9 -13.91)"></path> <polygon class="cls-2" points="330.18 202.81 330.18 209.06 324.57 202.68 324.54 202.65 323.86 202.65 323.86 212.54 325.59 212.54 325.59 206.25 331.22 212.66 331.25 212.7 331.91 212.7 331.91 202.81 330.18 202.81 330.18 202.81"></polygon> <path class="cls-2" d="M286.75,231v1.07h.63a.54.54,0,1,0,0-1.07Zm2,.53a1.21,1.21,0,0,1-1.33,1.2h-.63V234H286v-3.7h1.39a1.21,1.21,0,0,1,1.33,1.2Z" transform="translate(-14.9 -13.91)"></path> <path class="cls-2" d="M290.54,232.06h.63a.53.53,0,1,0,0-1.06h-.63v1.06Zm1.51,2-1-1.3h-.55V234h-.76v-3.7h1.39a1.22,1.22,0,0,1,1.34,1.2,1.15,1.15,0,0,1-.65,1.05l1,1.45Z" transform="translate(-14.9 -13.91)"></path> <polygon class="cls-2" points="281.42 217.11 279.69 217.11 279.69 217.86 280.96 217.86 280.96 218.5 279.69 218.5 279.69 219.44 281.49 219.44 281.49 220.12 278.94 220.12 278.94 216.42 281.42 216.42 281.42 217.11 281.42 217.11"></polygon> <path class="cls-2" d="M300.82,231.19l-.57.4a1.22,1.22,0,0,0-1.06-.62,1.22,1.22,0,0,0,0,2.43,1.22,1.22,0,0,0,1.06-.62l.57.4a1.83,1.83,0,0,1-1.64.92,1.92,1.92,0,1,1,0-3.83,1.84,1.84,0,0,1,1.63.92Z" transform="translate(-14.9 -13.91)"></path> <polygon class="cls-2" points="287.79 220.12 287.03 220.12 287.03 216.42 287.79 216.42 287.79 220.12 287.79 220.12"></polygon> <path class="cls-2" d="M304.54,232.18a1.19,1.19,0,1,0,1.18-1.21,1.16,1.16,0,0,0-1.18,1.21Zm3.15,0a2,2,0,1,1-2-1.91,1.93,1.93,0,0,1,2,1.91Z" transform="translate(-14.9 -13.91)"></path> <path class="cls-2" d="M311.82,232.5a1.57,1.57,0,1,1-3.13,0v-2.17h.75v2.23a.82.82,0,1,0,1.63,0v-2.23h.75v2.17Z" transform="translate(-14.9 -13.91)"></path> <path class="cls-2" d="M315.46,231l-.51.4a.84.84,0,0,0-.71-.43c-.24,0-.46.11-.46.36s.16.3.43.42l.42.19c.59.26.92.56.92,1.08a1.16,1.16,0,0,1-1.3,1.11,1.61,1.61,0,0,1-1.43-.82l.52-.39a1.11,1.11,0,0,0,.91.54c.33,0,.53-.15.53-.41s-.18-.33-.47-.46l-.4-.18c-.53-.24-.9-.54-.9-1.06a1.11,1.11,0,0,1,1.23-1,1.33,1.33,0,0,1,1.22.7Z" transform="translate(-14.9 -13.91)"></path> <polygon class="cls-2" points="307.83 216.36 307.83 220.12 307.07 220.12 307.07 218.15 306.14 219.31 305.9 219.31 304.97 218.15 304.97 220.12 304.21 220.12 304.21 216.36 304.45 216.36 306.02 218.36 307.58 216.36 307.83 216.36 307.83 216.36"></polygon> <polygon class="cls-2" points="311.71 217.11 309.98 217.11 309.98 217.86 311.25 217.86 311.25 218.5 309.98 218.5 309.98 219.44 311.78 219.44 311.78 220.12 309.22 220.12 309.22 216.42 311.71 216.42 311.71 217.11 311.71 217.11"></polygon> <polygon class="cls-2" points="315.68 217.11 314.49 217.11 314.49 220.12 313.74 220.12 313.74 217.11 312.56 217.11 312.56 216.42 315.68 216.42 315.68 217.11 315.68 217.11"></polygon> <path class="cls-2" d="M332.47,231.68l-.49,1.25h1l-.49-1.25Zm.76,1.87h-1.52l-.2.48h-.82l1.66-3.76h.25l1.65,3.76h-.82l-.2-.48Z" transform="translate(-14.9 -13.91)"></path> <polygon class="cls-2" points="321.07 219.44 322.69 219.44 322.69 220.12 320.32 220.12 320.32 216.42 321.07 216.42 321.07 219.44 321.07 219.44"></polygon> <path class="cls-2" d="M340.85,231l-.52.4a.82.82,0,0,0-.7-.43c-.25,0-.47.11-.47.36s.17.3.44.42l.42.19c.58.26.91.56.91,1.08a1.15,1.15,0,0,1-1.29,1.11,1.6,1.6,0,0,1-1.43-.82l.52-.39a1.08,1.08,0,0,0,.91.54c.32,0,.52-.15.52-.41s-.18-.33-.47-.46l-.39-.18c-.53-.24-.9-.54-.9-1.06a1.1,1.1,0,0,1,1.23-1,1.35,1.35,0,0,1,1.22.7Z" transform="translate(-14.9 -13.91)"></path> <polygon class="cls-2" points="256.93 202.81 249.86 215.62 247.69 211.7 246.43 213.98 249.87 220.19 259.45 202.81 256.93 202.81 256.93 202.81"></polygon> <polygon class="cls-2" points="241.4 204.85 243.72 209.07 244.99 206.78 242.8 202.81 242.8 202.81 242.79 202.81 235.93 202.81 237.05 204.85 241.4 204.85 241.4 204.85"></polygon> <polygon class="cls-2" points="248.62 202.81 248.62 202.81 248.62 202.81 248.62 202.81 241.55 215.63 234.48 202.81 231.96 202.81 241.56 220.19 250.02 204.85 250.02 204.85 254.36 204.85 255.49 202.81 248.62 202.81 248.62 202.81"></polygon> <path class="cls-2" d="M151.61,230.09h-1v-9h1.49a3.77,3.77,0,0,1,2.24.48,2.49,2.49,0,0,1,1,2.06,2.52,2.52,0,0,1-.87,1.94,3.21,3.21,0,0,1-2.14.6h-.73Zm0-4.89h.67c1.11,0,2.06-.34,2.06-1.63,0-1.48-1.19-1.59-2.36-1.59h-.37Z" transform="translate(-14.9 -13.91)"></path> <path class="cls-2" d="M158.12,230.09h-1v-9h1.31c1.72,0,3.31.45,3.31,2.49a2.36,2.36,0,0,1-2.26,2.5l2.87,4.05h-1.23l-2.74-4h-.25Zm0-4.86h.31c1.14,0,2.29-.21,2.29-1.62s-1.09-1.63-2.3-1.63h-.3Z" transform="translate(-14.9 -13.91)"></path> <path class="cls-2" d="M164.1,221.05h4.69V222h-3.68v2.69h3.57v.93h-3.57v3.55h3.68v.94H164.1Z" transform="translate(-14.9 -13.91)"></path> <path class="cls-2" d="M175.09,222.81a1.66,1.66,0,0,0-1.56-1,1.43,1.43,0,0,0-1.5,1.4c0,.78.8,1.14,1.42,1.41l.59.27c1.18.51,2.18,1.1,2.18,2.54a2.85,2.85,0,0,1-5.66.46l1-.28a1.87,1.87,0,0,0,1.81,1.68,1.82,1.82,0,0,0,1.86-1.76c0-1.06-.83-1.42-1.67-1.8l-.55-.24c-1.06-.48-2-1-2-2.32a2.37,2.37,0,0,1,2.53-2.3,2.61,2.61,0,0,1,2.34,1.4Z" transform="translate(-14.9 -13.91)"></path> <path class="cls-2" d="M178.17,221.05h4.69V222h-3.68v2.69h3.58v.93h-3.58v3.55h3.68v.94h-4.69Z" transform="translate(-14.9 -13.91)"></path> <path class="cls-2" d="M185.12,220.66l7,7.39v-7h1v9.45l-7.05-7.38v7h-1Z" transform="translate(-14.9 -13.91)"></path> <path class="cls-2" d="M198,230.09h-1V222h-2.18v-.93h5.4V222H198Z" transform="translate(-14.9 -13.91)"></path> <path class="cls-2" d="M201.67,221.05h4.69V222h-3.68v2.69h3.57v.93h-3.57v3.55h3.68v.94h-4.69Z" transform="translate(-14.9 -13.91)"></path> <path class="cls-2" d="M208.56,221.05h1.7a4.94,4.94,0,0,1,3.53,1.09,4.64,4.64,0,0,1,0,6.81,4.8,4.8,0,0,1-3.57,1.14h-1.68Zm1.74,8.1a3.78,3.78,0,0,0,2.85-.93,3.69,3.69,0,0,0-.05-5.36,3.88,3.88,0,0,0-2.8-.88h-.73v7.17Z" transform="translate(-14.9 -13.91)"></path> <path class="cls-2" d="M221.35,221.05h1.49c1.64,0,3,.6,3,2.44a2,2,0,0,1-.89,1.77,2.29,2.29,0,0,1,1.72,2.31c0,1.8-1.45,2.52-3.24,2.52h-2.1Zm1,4h.38c1.14,0,2.11-.13,2.11-1.54S224,222,222.75,222h-.39Zm0,4.12h1c1.13,0,2.32-.27,2.32-1.65s-1.34-1.61-2.45-1.61h-.87Z" transform="translate(-14.9 -13.91)"></path> <path class="cls-2" d="M227.4,221.05h1.16l2.3,4,2.31-4h1.16l-3,5.15v3.89h-1V226.2Z" transform="translate(-14.9 -13.91)"></path> <path class="cls-2" d="M236.22,225a.68.68,0,1,1-1.35,0,.68.68,0,0,1,1.35,0Zm0,4.6a.68.68,0,1,1-1.35,0,.68.68,0,0,1,1.35,0Z" transform="translate(-14.9 -13.91)"></path> <g id="_Group_" data-name="&lt;Group&gt;"> <g id="_Group_2" data-name="&lt;Group&gt;"> <path id="_Path_2" data-name="&lt;Path&gt;" class="cls-3" d="M150.33,168.09c1.47-5.56,1.64-12.14,4-13.81,1.63-.32,2.45-1.35,3.43-2.22.34-1.29-.39-2.61-.13-3.75s2.5-3,3.74-4.38c1.44-1.55,2.59-3.29,3.57-4.51,2.64-3.27,6.06-5.7,7.65-8.75a11,11,0,0,0,1.32-4c.19-6.46-7.92-23-8.79-25.55s-2.59-5.81-2.28-8.51a13.28,13.28,0,0,0-2.37-7.54c-.53-.64-1.15.09-1.56,0-.06,0-.45-.69-1-.83a1.57,1.57,0,0,0-1.29.4,1.45,1.45,0,0,0-1.18-.55c-.81,0-1.14,1.08-1.14,1.08a2,2,0,0,0-1.17.17c-.51.27-.46,1.23-.46,1.23s-.78,3.17-.73,3.41a4.68,4.68,0,0,0,1.42,2.61,55.07,55.07,0,0,1,3.79,4.29c2.55,2.87,4.2,24.54,5.76,29.21-3.76,3.79-8.71,6.58-10.66,11.92-4.43,1.11-8.39,2.38-11.72,4.66-.78.54-1.68,1.63-2.31,1.81s-1.15-.18-1.65-.2c-.76,0-1.15.49-1.63,0-1.58-2.59.31-6.46.13-8.84a14.66,14.66,0,0,1,1.69-1.43c1.92-3.83,1.18-9.69-1-13.13a11.77,11.77,0,0,0-4.22-3.92,17.26,17.26,0,0,0-7.53-.23,19.16,19.16,0,0,0-4.58,2.14c-1.91,1-3.69,3.45-3.82,5.36a26.08,26.08,0,0,0,.82,6.46c.18.63.77,1,1.12,1.87.68,1.67.24,3.4,2.11,3.92.15,3.25,2.06,2.61.54,5.57-.67.65-.94-.18-1.64,0-1,.2-1.29-1.22-3.54-4.51s-2.73-.74-4.87-8.32c-2.07-7.34-5.56-14.07-5.5-16,0-1.53,0-4.85-1.34-14.89-1-7-1.86-12.66.12-14.92,1.26-1.45,0-1.71.1-2.47a9.56,9.56,0,0,0-.27-3,9.75,9.75,0,0,0-.36-1.31,6.31,6.31,0,0,0-.53-1.66c-.65-.81-1.22-.27-1.5-.33a1.51,1.51,0,0,0-.92-.55,1.65,1.65,0,0,0-1.25.47,2.39,2.39,0,0,0-1.27-.39c-.47,0-1,.51-1.08.5a1.94,1.94,0,0,0-1,0c-1.14.58-2.28,2.79-1.42,6,1.14,4.21,2,4.08,1.89,7.62-.69,17-1.11,20.78.13,25.73,1.29,5.22,3.13,19.17,4.2,24.72.18.93.55,1.25.74,2.4.9,5.59,2.59,13.36,3.33,16.08.27,1,3.75,5.17,3.88,11a152.87,152.87,0,0,1-2.16,27.45h41.55S145.17,187.63,150.33,168.09Z" transform="translate(-14.9 -13.91)"></path> </g> <path id="_Compound_Path_" data-name="&lt;Compound Path&gt;" class="cls-4" d="M207.32,59C202,52.32,190.24,44.69,178.74,44.7s-24.82,3.62-34.2,17.41a107.56,107.56,0,0,1-11.37-5.42l.21-19s2.44-.36,4.72-.74c7.32-1.23,7.38-7.28,6.94-10a4.7,4.7,0,0,0-7.36-3.14,35.71,35.71,0,0,1-8,3.67c-2.26.75-4.88.51-7.18,1-2.76.56-6.43,2.89-6.25,4.38s13.84,3.89,13.84,3.89l-1,17.7s-52.44.79-58,.73c-.35-.41,3.44-19,3.44-19a4.52,4.52,0,0,0,1.59-4.29s7.5.36,8.58,1c.54.3-.56,1.33-.86,3.8-.34,2.8,0,6.77,1.06,8.16,2,2.58,5.56,3.35,11.93,4.33a1.72,1.72,0,0,0,1.06-3.26c-1.65-.51-6.61-.49-8.9-1.64-2.45-1.22-2.21-5.39-1.47-8.66.46-2.07,3.59-1.38,3.26-4.57-.2-2-5.23-2-16.37-2.72-.59,0-.06-2.54-3.75-2-.74.11-.87,1.63-1.93,1.55-4.25-.33-13,0-15.68,0-.62,0-4.51-1-6.7-.25-1.88.66-2.79,3.65-2.94,7.35-.12,3,.3,8.67,2.45,10,4.08,2.46,5.26,4.53,8.66,5.23,3.55.74,3.63-2.32,1.39-3.43a27.38,27.38,0,0,1-7.6-4.57c-1-.82-1.64-4.23-1.47-6.7s.49-5.23,2.45-4.57a20.5,20.5,0,0,0,6.37,1.22c5,0,10.31-.64,11-.57,1.66.16,1.87-.53,2.8,1.28s1.11,1.21,1.53,2.89-6,28.64-6,28.64a46.28,46.28,0,0,0-3.22,3.7,16,16,0,0,0-2.4,7,33.27,33.27,0,0,0-10.31,3.83c-6.67,4.17-17.07,12-20,34.15-2.55,19,9.1,36.77,27.05,38.84s35.74-15.17,37.21-40.46a34.58,34.58,0,0,0-11.42-28,46,46,0,0,0-8.85-6.3,28.56,28.56,0,0,0,.44-5.44c-.18-2.65-.91-4.44-.48-5.24s48.08,29.35,48.61,30.36c-1.54,2.44-4.59,3-8.07,3-.29-1.34.8-3.9-.73-3-2.26,1.32-6.74,8.55-5.62,9.66s5.39-3.58,5.39-3.58,9.56-.89,10-.17a9.37,9.37,0,0,0,9.82,4.12c4.28-1,5.43-3.56,6.63-5.41a24.39,24.39,0,0,0,3.92-.74,63.39,63.39,0,0,0,7.6,8.71c4.05,3.7,15.63,11.19,29.28,11.52s24.3-8.55,28.87-15.23,7.13-13.29,7.12-21.85A41.23,41.23,0,0,0,207.32,59ZM62.74,82.29c1-.12,3.5-.21,4.41.51C67,86.53,65.49,92.14,64.71,97s-1.33,10.3-2.28,14.15c-.27,1.07-5.46,2.18-4.93.26C58.15,109.13,61,91.24,62.74,82.29Zm18.53,9.82c5,6.82,7.42,20.29,1.21,34.72s-18.18,19.82-31,16.84c-10-2.32-18.91-15.74-16.88-30.66,1.71-12.49,6.59-19.67,12.3-24.89a26.14,26.14,0,0,1,11-5.76s-2.75,17.57-3.52,24.24-1.63,9.79.4,9.85A41.06,41.06,0,0,0,64.44,115c.89-.28,1.69-5.77,2.26-9.13.69-4,1.52-8.07,2.18-11.74.73-4.06.82-7.66,2.19-10.43C72.37,84.29,76.27,85.29,81.27,92.11Zm47-1.48c-1,.39-2.07.86-3.11,1.28-2.78-1.33-50.32-30.79-51.5-32.06,14.91-.32,53.35-2.46,53.3-.46a17.74,17.74,0,0,0,.56,3.55A5,5,0,0,0,128.91,66S129.19,83.86,128.27,90.63ZM140,77.34a78.12,78.12,0,0,0,.21,14.1c0,1.08-2.12,1.79-3.9.63a10.15,10.15,0,0,0-4.11-1.67l.12-23.84a4,4,0,0,0,1.74-2.67,15.8,15.8,0,0,0,.34-3l8.75,4.36A50.2,50.2,0,0,0,140,77.34Zm7,13.15c-2.69-4.91-.78-15.63,1.24-20.72.05-.14,16.55,7.5,23.54,12.41C170.65,83.33,150.17,90.31,147,90.49ZM209.24,86c-2.07,17.87-15.45,29.63-33.82,27.51s-26.31-17.57-26.18-18.13c.34-1.49,22-8,22.76-7.89a3,3,0,0,1,1.92,1.87c.07,1.58-2.58,2.14-1.33,4.44,2.1,1.33,4.83,2.16,7,3.44.26.67-.28,1.18-.53,1.74,1,2.26,4.66,2.54,5.06.26.58-3.33-4.12-4-5.74-5.76.66-2.25,3.29-2.58,4.57-4.07A5.53,5.53,0,0,0,184,83.09c-2.56-5.25-31.8-18.34-32-19.52s9.94-14,28.81-11.83S211.3,68.09,209.24,86Z" transform="translate(-14.9 -13.91)"></path> <g id="_Group_3" data-name="&lt;Group&gt;"> <g id="_Group_4" data-name="&lt;Group&gt;"> <path id="_Path_3" data-name="&lt;Path&gt;" class="cls-3" d="M96.91,74.54a.63.63,0,0,1-.38.85.85.85,0,0,1-1-.35L95,74.18c-.15-.29,0-.56.38-.86a.58.58,0,0,1,.92.18Z" transform="translate(-14.9 -13.91)"></path> <path id="_Path_4" data-name="&lt;Path&gt;" class="cls-3" d="M99.33,75.77a.88.88,0,0,1-.48,1.2c-.49.13-1-.24-1.29-.78l-.7-1.42c-.2-.47-.07-.86.47-1.2s1,0,1.19.5Z" transform="translate(-14.9 -13.91)"></path> <path id="_Path_5" data-name="&lt;Path&gt;" class="cls-3" d="M100.9,77.51a.92.92,0,0,1-.84,1.06c-.54,0-.91-.52-1.07-1.17l-.28-1.63c-.06-.53.19-.88.84-1.07s1,.33,1,.86Z" transform="translate(-14.9 -13.91)"></path> <path id="_Path_6" data-name="&lt;Path&gt;" class="cls-3" d="M102.4,77.43a.81.81,0,0,1-.78.92c-.48,0-.79-.48-.92-1l-.21-1.46c0-.47.19-.77.77-.92s.88.31.92.78Z" transform="translate(-14.9 -13.91)"></path> <path id="_Path_7" data-name="&lt;Path&gt;" class="cls-3" d="M102.6,78.5a3,3,0,0,1,1.29-3.12c1.4-.66.48,2.66,1,4.14l-.67,3.22c-.27.86-1.23,2.83-2.22,2.73s-3.3-1.18-2.2-3.15S102.86,80.06,102.6,78.5Z" transform="translate(-14.9 -13.91)"></path> </g> <g id="_Group_5" data-name="&lt;Group&gt;"> <path id="_Path_8" data-name="&lt;Path&gt;" class="cls-3" d="M159,86.88a.68.68,0,0,0,.85.55.93.93,0,0,0,.65-1l-.07-1.15c0-.36-.3-.55-.87-.56a.64.64,0,0,0-.68.77Z" transform="translate(-14.9 -13.91)"></path> <path id="_Path_9" data-name="&lt;Path&gt;" class="cls-3" d="M157.23,87.7c.13.6.67,1.06,1.19.86s.72-.88.65-1.64l-.29-1.87a1,1,0,0,0-1.2-.88c-.71,0-.87.7-.74,1.31Z" transform="translate(-14.9 -13.91)"></path> <path id="_Path_10" data-name="&lt;Path&gt;" class="cls-3" d="M155.63,88.47c.27.69,1,1.15,1.46.81s.55-1.2.31-2.08L156.67,85a1.15,1.15,0,0,0-1.46-.82c-.74.17-.75,1-.48,1.7Z" transform="translate(-14.9 -13.91)"></path> <path id="_Path_11" data-name="&lt;Path&gt;" class="cls-3" d="M153.74,89.08a.89.89,0,0,0,1.34.5,1.68,1.68,0,0,0,.29-1.85l-.67-1.8a.94.94,0,0,0-1.36-.51c-.67.25-.69,1-.44,1.54Z" transform="translate(-14.9 -13.91)"></path> <path id="_Path_12" data-name="&lt;Path&gt;" class="cls-3" d="M154.26,89.94c-.37-1.53.81-3.17-.24-3.86-.23-.15-2.32,1.4-2.61,2.28a8.84,8.84,0,0,0,.8,3.82l1.33,2.1c.57.68,3,2.39,3.88,1.91s2.83-3.14,1-4.51S154.64,91.46,154.26,89.94Z" transform="translate(-14.9 -13.91)"></path> </g> </g> </g> <path class="cls-1" d="M30.06,201.09V185.35h5.85c2.8,0,4.67,1.09,4.67,4.1a3.27,3.27,0,0,1-1.73,3.21v0c2.26.29,3.22,1.82,3.22,4,0,3.3-2.82,4.38-5.7,4.38Zm4.1-9.56h.45c1.09,0,2.22-.19,2.22-1.52s-1.28-1.52-2.38-1.52h-.29Zm0,6.43h.52c1.21,0,3.25.06,3.25-1.67,0-1.9-2-1.71-3.36-1.71h-.41Z" transform="translate(-14.9 -13.91)"></path> <path class="cls-1" d="M49.12,188.82v2.63h4.61v3.46H49.12v2.72H54v3.46H45V185.35H54v3.47Z" transform="translate(-14.9 -13.91)"></path> <path class="cls-1" d="M57.34,185.35h4.09L68.92,195h0v-9.63h4.1v15.74H69l-7.49-9.64h0v9.64H57.34Z" transform="translate(-14.9 -13.91)"></path> <path class="cls-1" d="M80.65,188.82v2.63h4.61v3.46H80.65v2.72h4.86v3.46h-9V185.35h9v3.47Z" transform="translate(-14.9 -13.91)"></path> <path class="cls-1" d="M93,188.82v2.63h4.49v3.46H93v6.18H88.87V185.35h9v3.47Z" transform="translate(-14.9 -13.91)"></path> <path class="cls-1" d="M105.11,201.09H101V185.35h4.1Z" transform="translate(-14.9 -13.91)"></path> <path class="cls-1" d="M114.87,201.09h-4.09V188.82H107.4v-3.47h10.85v3.47h-3.38Z" transform="translate(-14.9 -13.91)"></path> <path class="cls-1" d="M124.66,201.09h-4.09V185.35h4.09Z" transform="translate(-14.9 -13.91)"></path> <path class="cls-1" d="M128.16,185.35h4.09l7.5,9.63h0v-9.63h4.09v15.74h-4.09l-7.49-9.64h-.05v9.64h-4.09Z" transform="translate(-14.9 -13.91)"></path> <path class="cls-1" d="M163.08,192.3c0,2.3-.21,4.26-1.61,6.23a7.62,7.62,0,0,1-6.49,3.08c-4.95,0-8.39-3.36-8.39-8.3,0-5.12,3.46-8.48,8.54-8.48a7.3,7.3,0,0,1,7.09,4.41l-3.88,1.62a3.55,3.55,0,0,0-3.4-2.5c-2.69,0-4.09,2.57-4.09,5s1.46,4.92,4.15,4.92a3,3,0,0,0,3.3-2.73H155V192.3Z" transform="translate(-14.9 -13.91)"></path> <path class="cls-1" d="M173.78,201.09V185.35h5.85c2.79,0,4.67,1.09,4.67,4.1a3.27,3.27,0,0,1-1.73,3.21v0c2.25.29,3.21,1.82,3.21,4,0,3.3-2.81,4.38-5.69,4.38Zm4.09-9.56h.46c1.09,0,2.21-.19,2.21-1.52s-1.27-1.52-2.38-1.52h-.29Zm0,6.43h.52c1.21,0,3.26.06,3.26-1.67,0-1.9-2-1.71-3.36-1.71h-.42Z" transform="translate(-14.9 -13.91)"></path> <path class="cls-1" d="M200,190.63a4.45,4.45,0,0,0-3.59-1.73,4.14,4.14,0,0,0-4.19,4.36,4.08,4.08,0,0,0,4.26,4.28,4.67,4.67,0,0,0,3.52-1.67v4.91a11.43,11.43,0,0,1-3.61.73,8.75,8.75,0,0,1-5.9-2.32,7.67,7.67,0,0,1-2.53-5.95,8.22,8.22,0,0,1,2.32-5.76,8.53,8.53,0,0,1,6-2.54,9.6,9.6,0,0,1,3.73.79Z" transform="translate(-14.9 -13.91)"></path> <path class="cls-1" d="M222.09,190.63a4.45,4.45,0,0,0-3.59-1.73,4.14,4.14,0,0,0-4.19,4.36,4.08,4.08,0,0,0,4.26,4.28,4.67,4.67,0,0,0,3.52-1.67v4.91a11.43,11.43,0,0,1-3.61.73,8.75,8.75,0,0,1-5.9-2.32,7.67,7.67,0,0,1-2.53-5.95,8.22,8.22,0,0,1,2.32-5.76,8.53,8.53,0,0,1,6-2.54,9.6,9.6,0,0,1,3.73.79Z" transform="translate(-14.9 -13.91)"></path> <path class="cls-1" d="M229.21,198.36l-1.09,2.73h-4.34l6.05-15.74h4.47l5.93,15.74h-4.36l-1-2.73Zm2.86-8.14h0l-1.69,5h3.4Z" transform="translate(-14.9 -13.91)"></path> <path class="cls-1" d="M242.33,185.35h4.09l7.5,9.63h0v-9.63h4.09v15.74H254l-7.5-9.64h0v9.64h-4.09Z" transform="translate(-14.9 -13.91)"></path> <path class="cls-1" d="M272.8,190.63a4.45,4.45,0,0,0-3.59-1.73,4.14,4.14,0,0,0-4.19,4.36,4.08,4.08,0,0,0,4.26,4.28,4.67,4.67,0,0,0,3.52-1.67v4.91a11.49,11.49,0,0,1-3.61.73,8.79,8.79,0,0,1-5.91-2.32,7.69,7.69,0,0,1-2.52-5.95,8.22,8.22,0,0,1,2.32-5.76,8.53,8.53,0,0,1,6-2.54,9.6,9.6,0,0,1,3.73.79Z" transform="translate(-14.9 -13.91)"></path> <path class="cls-1" d="M280.25,188.82v2.63h4.61v3.46h-4.61v2.72h4.86v3.46h-8.95V185.35h8.95v3.47Z" transform="translate(-14.9 -13.91)"></path> <path class="cls-1" d="M301.56,201.09h-5.09L292.6,195h0v6.05h-4.09V185.35h6.12c3.11,0,5.47,1.49,5.47,4.85a4.22,4.22,0,0,1-3.45,4.44Zm-9-8.68h.4c1.33,0,2.84-.25,2.84-2s-1.51-2-2.84-2h-.4Z" transform="translate(-14.9 -13.91)"></path> <path class="cls-1" d="M315.58,188.82v2.63h4.49v3.46h-4.49v6.18h-4.09V185.35h9v3.47Z" transform="translate(-14.9 -13.91)"></path> <path class="cls-1" d="M340.25,192.93a8.71,8.71,0,0,1-17.41,0c0-4.76,4.18-8.1,8.7-8.1S340.25,188.17,340.25,192.93Zm-13.15,0a4.45,4.45,0,1,0,8.89,0,4.46,4.46,0,0,0-8.89,0Z" transform="translate(-14.9 -13.91)"></path> <path class="cls-1" d="M356.63,185.35v8.85c0,2-.08,4-1.65,5.56a8.66,8.66,0,0,1-10.44,0c-1.56-1.53-1.65-3.53-1.65-5.56v-8.85H347v8.29c0,2.05.14,4.28,2.77,4.28s2.78-2.23,2.78-4.28v-8.29Z" transform="translate(-14.9 -13.91)"></path> <path class="cls-1" d="M360.05,185.35h4.09l7.49,9.63h.05v-9.63h4.09v15.74h-4.09l-7.5-9.64h0v9.64h-4.09Z" transform="translate(-14.9 -13.91)"></path> <path class="cls-1" d="M379.27,185.35h5.8a7.87,7.87,0,1,1,0,15.74h-5.8Zm4.09,12.28h.92c2.44,0,4.53-1.34,4.53-4.41a4.14,4.14,0,0,0-4.49-4.4h-1Z" transform="translate(-14.9 -13.91)"></path> <path class="cls-1" d="M399.3,198.36l-1.08,2.73h-4.34l6.05-15.74h4.47l5.92,15.74H406l-1-2.73Zm2.86-8.14h0l-1.69,5h3.4Z" transform="translate(-14.9 -13.91)"></path> <path class="cls-1" d="M417.44,201.09h-4.09V188.82H410v-3.47h10.86v3.47h-3.38Z" transform="translate(-14.9 -13.91)"></path> <path class="cls-1" d="M427.22,201.09h-4.09V185.35h4.09Z" transform="translate(-14.9 -13.91)"></path> <path class="cls-1" d="M447.34,192.93a8.7,8.7,0,0,1-17.4,0c0-4.76,4.17-8.1,8.7-8.1S447.34,188.17,447.34,192.93Zm-13.15,0a4.46,4.46,0,1,0,8.9,0,4.46,4.46,0,0,0-8.9,0Z" transform="translate(-14.9 -13.91)"></path> <path class="cls-1" d="M450.07,185.35h4.09l7.5,9.63h0v-9.63h4.09v15.74H461.7l-7.49-9.64h0v9.64h-4.09Z" transform="translate(-14.9 -13.91)"></path> <path class="cls-2" d="M207.18,169.31h-4.31V156.39h-3.56v-3.64h11.43v3.64h-3.56Z" transform="translate(-14.9 -13.91)"></path> <path class="cls-2" d="M230,160.72a9.16,9.16,0,0,1-18.32,0c0-5,4.39-8.52,9.16-8.52S230,155.71,230,160.72Zm-13.84,0a4.69,4.69,0,1,0,9.36,0,4.69,4.69,0,0,0-9.36,0Z" transform="translate(-14.9 -13.91)"></path> <path class="cls-2" d="M252.63,158.31a4.68,4.68,0,0,0-3.78-1.83,4.37,4.37,0,0,0-4.42,4.6,4.29,4.29,0,0,0,4.48,4.5,5,5,0,0,0,3.72-1.76V169a12.45,12.45,0,0,1-3.8.76,9.21,9.21,0,0,1-6.22-2.43,8.14,8.14,0,0,1-2.66-6.27,8.66,8.66,0,0,1,2.44-6.06,9,9,0,0,1,6.31-2.68,10.26,10.26,0,0,1,3.93.83Z" transform="translate(-14.9 -13.91)"></path> <path class="cls-2" d="M273.53,160.72a9.17,9.17,0,0,1-18.33,0c0-5,4.4-8.52,9.17-8.52S273.53,155.71,273.53,160.72Zm-13.85,0a4.69,4.69,0,1,0,9.36,0,4.69,4.69,0,0,0-9.36,0Z" transform="translate(-14.9 -13.91)"></path> <path class="cls-2" d="M276.41,152.75h4.31l7.88,10.13h0V152.75H293v16.56h-4.31l-7.89-10.15h0v10.15h-4.31Z" transform="translate(-14.9 -13.91)"></path> <path class="cls-2" d="M310.84,170.35l-1.31-1.56a8.57,8.57,0,0,1-4.55,1.07,8.81,8.81,0,0,1-9.16-9.14c0-5,4.39-8.52,9.16-8.52,5.16,0,9.16,3.49,9.16,8.88A9.06,9.06,0,0,1,312,166.9l2.79,2.83Zm-1.95-6.81a4.35,4.35,0,0,0,.77-2.44,4.76,4.76,0,0,0-4.66-4.73,4.65,4.65,0,0,0-4.7,4.38,4.76,4.76,0,0,0,4.7,4.94,4.06,4.06,0,0,0,1.32-.22l-2.66-2.64,4.06-.5Z" transform="translate(-14.9 -13.91)"></path> <path class="cls-2" d="M331.39,152.75v9.31c0,2.13-.08,4.24-1.73,5.85a9.13,9.13,0,0,1-11,0c-1.65-1.61-1.73-3.72-1.73-5.85v-9.31h4.3v8.72c0,2.15.16,4.5,2.92,4.5s2.93-2.35,2.93-4.5v-8.72Z" transform="translate(-14.9 -13.91)"></path> <path class="cls-2" d="M339.31,156.39v2.77h4.85v3.65h-4.85v2.86h5.12v3.64H335V152.75h9.43v3.64Z" transform="translate(-14.9 -13.91)"></path> <path class="cls-2" d="M361.74,169.31h-5.36l-4.06-6.37h-.05v6.37H348V152.75h6.44c3.27,0,5.75,1.56,5.75,5.09a4.44,4.44,0,0,1-3.62,4.68Zm-9.47-9.14h.42c1.41,0,3-.26,3-2.06s-1.58-2.07-3-2.07h-.42Z" transform="translate(-14.9 -13.91)"></path> <path class="cls-2" d="M383.52,158.31a4.64,4.64,0,0,0-3.77-1.83,4.37,4.37,0,0,0-4.42,4.6,4.29,4.29,0,0,0,4.48,4.5,4.93,4.93,0,0,0,3.71-1.76V169a12.39,12.39,0,0,1-3.8.76,9.24,9.24,0,0,1-6.22-2.43,8.13,8.13,0,0,1-2.65-6.27,8.62,8.62,0,0,1,2.44-6.06,9,9,0,0,1,6.3-2.68,10.18,10.18,0,0,1,3.93.83Z" transform="translate(-14.9 -13.91)"></path> <path class="cls-2" d="M391,166.44l-1.14,2.87h-4.57l6.37-16.56h4.7l6.24,16.56H398L397,166.44Zm3-8.57h0l-1.78,5.27h3.58Z" transform="translate(-14.9 -13.91)"></path> <path class="cls-2" d="M404.84,152.75h4.31L417,162.88h0V152.75h4.31v16.56h-4.31l-7.88-10.15h-.05v10.15h-4.31Z" transform="translate(-14.9 -13.91)"></path> <path class="cls-2" d="M436.93,158.31a4.68,4.68,0,0,0-3.78-1.83,4.37,4.37,0,0,0-4.42,4.6,4.29,4.29,0,0,0,4.48,4.5,5,5,0,0,0,3.72-1.76V169a12.45,12.45,0,0,1-3.8.76,9.21,9.21,0,0,1-6.22-2.43,8.14,8.14,0,0,1-2.66-6.27,8.66,8.66,0,0,1,2.44-6.06,9,9,0,0,1,6.31-2.68,10.26,10.26,0,0,1,3.93.83Z" transform="translate(-14.9 -13.91)"></path> <path class="cls-2" d="M444.78,156.39v2.77h4.85v3.65h-4.85v2.86h5.12v3.64h-9.43V152.75h9.43v3.64Z" transform="translate(-14.9 -13.91)"></path> <path class="cls-2" d="M467.21,169.31h-5.36l-4.06-6.37h-.05v6.37h-4.3V152.75h6.43c3.28,0,5.76,1.56,5.76,5.09a4.44,4.44,0,0,1-3.63,4.68Zm-9.47-9.14h.42c1.41,0,3-.26,3-2.06s-1.58-2.07-3-2.07h-.42Z" transform="translate(-14.9 -13.91)"></path> <g id="_Group_6" data-name="&lt;Group&gt;"> <path id="_Compound_Path_2" data-name="&lt;Compound Path&gt;" class="cls-2" d="M274.21,142.3H248L221.1,97.58h-.29V142.3H199.19V31.39h29.27c21.92,0,37.07,9.71,37.07,33.39,0,14.12-7.8,28.24-22.65,30.74Zm-53.4-59.87h2.8c11.91,0,20.29-3.53,20.29-17.06,0-13.68-8.67-16.33-20.15-16.33h-2.94Z" transform="translate(-14.9 -13.91)"></path> <path id="_Compound_Path_3" data-name="&lt;Compound Path&gt;" class="cls-2" d="M302.89,142.3H281.27V31.39h21.62Z" transform="translate(-14.9 -13.91)"></path> <path id="_Compound_Path_4" data-name="&lt;Compound Path&gt;" class="cls-2" d="M315.69,31.39h30.89c32.07,0,53.54,24,53.54,55.6,0,31.19-22.06,55.31-53.69,55.31H315.69Zm21.62,92.08h3.53c26.63,0,36.92-14.71,36.92-36.62,0-24.13-12.35-36.63-36.92-36.63h-3.53Z" transform="translate(-14.9 -13.91)"></path> <path id="_Compound_Path_5" data-name="&lt;Compound Path&gt;" class="cls-2" d="M429.39,50.22V74.64h34.42V93.47H429.39v30h35.75V142.3H407.77V31.39h57.37V50.22Z" transform="translate(-14.9 -13.91)"></path> </g> </svg> 